<?xml version="1.0" standalone="no"?>
<!DOCTYPE svg PUBLIC "-//W3C//DTD SVG 20010904//EN"
 "http://www.w3.org/TR/2001/REC-SVG-20010904/DTD/svg10.dtd">
<svg version="1.0" xmlns="http://www.w3.org/2000/svg"
 width="833.000000pt" height="833.000000pt" viewBox="0 0 833.000000 833.000000"
 preserveAspectRatio="xMidYMid meet">

<g transform="translate(0.000000,833.000000) scale(0.100000,-0.100000)"
fill="#000000" stroke="none">
<path d="M5288 5453 l-118 -4 0 -93 0 -94 61 -36 c33 -20 65 -36 70 -36 5 0 9
26 9 59 0 39 5 63 14 71 10 8 51 11 128 9 l113 -3 0 65 0 64 -80 1 c-44 0
-133 -1 -197 -3z"/>
<path d="M4395 5216 l-60 -35 -10 -78 -10 -78 -62 -3 -63 -3 0 -53 c0 -51 18
-112 105 -351 20 -55 43 -106 52 -112 21 -16 133 -17 133 -2 0 11 -126 360
-140 389 -13 26 0 40 39 40 67 0 76 14 79 137 2 59 2 125 0 145 l-3 38 -60
-34z"/>
<path d="M4068 5028 l-68 -40 0 -244 0 -244 70 0 70 0 0 285 c0 157 -1 285 -2
284 -2 0 -33 -19 -70 -41z"/>
<path d="M3779 4861 c-29 -18 -49 -39 -53 -55 -6 -23 -12 -26 -47 -26 -32 0
-63 -13 -137 -56 -54 -31 -98 -58 -99 -59 -2 -1 -33 -155 -33 -163 0 -2 30 -2
67 0 l68 3 11 78 c5 42 15 82 21 88 5 5 46 9 94 7 65 -2 84 -6 86 -18 1 -8 7
-48 13 -87 l12 -73 64 0 c54 0 64 3 64 18 0 9 -16 94 -35 187 -19 94 -35 173
-35 178 0 12 -13 8 -61 -22z"/>
<path d="M4841 4763 c-1 -6 -4 -20 -7 -30 -5 -17 -5 -17 6 0 6 10 9 23 6 30
-3 9 -5 9 -5 0z"/>
<path d="M3247 4553 c-31 -19 -57 -39 -57 -44 0 -5 29 -9 65 -9 l65 0 0 33 c0
56 -10 59 -73 20z"/>
<path d="M2716 4523 c-6 -14 -5 -15 5 -6 7 7 10 15 7 18 -3 3 -9 -2 -12 -12z"/>
<path d="M2430 3862 c0 -389 2 -450 16 -470 15 -22 20 -22 219 -22 164 0 206
3 218 14 12 12 16 91 22 449 4 239 4 444 0 455 -6 20 -14 22 -70 22 l-64 0 -7
-37 c-4 -21 -4 -202 -1 -403 4 -201 3 -371 -1 -378 -6 -9 -33 -12 -98 -10
l-89 3 -3 413 -2 412 -70 0 -70 0 0 -448z"/>
<path d="M3020 3886 c0 -233 3 -444 6 -470 6 -44 8 -46 38 -46 28 0 36 7 64
56 l32 56 0 338 c0 186 3 345 6 354 9 23 159 23 168 0 3 -9 6 -78 6 -155 l0
-139 -65 0 -65 0 0 -50 c0 -48 7 -73 38 -137 l16 -31 108 186 108 187 0 108
c0 78 -4 116 -15 137 l-16 30 -214 0 -215 0 0 -424z"/>
<path d="M3610 4285 c-6 -8 -10 -19 -8 -26 2 -6 9 0 16 15 13 29 10 33 -8 11z"/>
</g>
</svg>
